PathFileType	3	(X/Y/Z)	D:\minhoCalibration\240510\subject4_KPNP\preferred\preferred02.trc
DataRate	CameraRate	NumFrames	NumMarkers	Units	OrigDataRate	OrigDataStartFrame	OrigNumFrames
200.0	200.0	18	10	mm	200.0	566	77	
Frame#	Time	Left_Ankle_Outer1			Left_Ankle_Inner1			Left_Knee_Outer1			Left_Knee_Inner1			Left_Wrist1			Right_Wrist1			Right_Knee_Inner1			Right_Knee_Outer1			Right_Ankle_Inner1			Right_Ankle_Outer1			
		X1	Y1	Z1	X2	Y2	Z2	X3	Y3	Z3	X4	Y4	Z4	X5	Y5	Z5	X6	Y6	Z6	X7	Y7	Z7	X8	Y8	Z8	X9	Y9	Z9	X10	Y10	Z10	
566	2.82	-456.14679	1152.084	274.50388	-423.51355	1051.4828	267.07092	-263.06644	1105.6605	755.82922	-282.76041	1025.5133	731.53149	-380.76364	1212.2875	1126.7115	-347.52368	916.71655	1354.3672	-253.0956	541.74963	1073.4132	-234.8757	557.30145	1182.2455	-467.58359	124.04277	1209.1267	-437.51398	135.68558	1258.1757
567	2.825	-463.01822	1143.4862	271.3335	-423.64676	1045.3494	264.04303	-269.22443	1113.0383	755.77502	-283.92111	1031.8258	730.54114	-386.2789	1210.8612	1123.7061	-345.66016	915.19568	1350.1069	-254.27708	541.17914	1068.6698	-235.06749	556.90509	1176.6332	-467.60449	124.06989	1208.8193	-437.29462	136.10497	1257.0377
568	2.83	-469.03061	1134.3317	267.6835	-424.55646	1037.9722	263.21338	-277.05286	1122.8695	755.091	-285.06274	1037.7832	729.44141	-391.77036	1209.5122	1120.7566	-343.90616	913.38031	1345.3685	-255.63806	540.58905	1063.6931	-235.22453	556.55408	1171.5795	-468.26926	123.90358	1208.0012	-437.6788	136.43254	1255.7078
569	2.835	-474.72446	1124.7893	264.53094	-425.03174	1030.6683	261.39182	-287.26291	1131.8577	754.03943	-287.01962	1043.7365	728.26257	-397.33197	1209.0195	1117.9818	-342.46945	911.40253	1340.4888	-257.45462	540.04022	1058.7633	-235.49039	555.95081	1166.614	-469.60522	123.85519	1206.6489	-438.418	136.87776	1253.9606
570	2.84	-478.87311	1114.3759	260.84851	-424.87604	1022.7737	259.61478	-299.129	1139.3527	751.67969	-288.14517	1049.4183	727.0752	-402.30713	1207.7576	1115.9081	-341.21695	909.19513	1335.323	-259.73322	539.50763	1054.1643	-235.59984	555.27661	1161.929	-471.29135	123.81998	1204.8461	-439.52689	137.35909	1251.6545
571	2.845	-482.31952	1102.9608	257.86816	-422.94794	1014.9067	256.62985	-313.05682	1144.8848	748.26764	-289.15292	1055.0251	725.93469	-406.91333	1207.9214	1114.4811	-339.88977	906.89264	1329.8086	-261.6485	538.64264	1049.2487	-236.11064	554.26141	1156.8279	-473.3891	124.13543	1202.6184	-441.23157	137.71725	1249.1945
572	2.85	-484.93481	1089.9202	255.23395	-420.66183	1006.9185	255.63144	-327.69653	1147.3143	744.55438	-290.26776	1060.7401	724.85785	-411.21704	1208.6139	1113.4745	-338.27444	904.57886	1324.2609	-264.24484	538.22125	1044.8578	-236.37079	553.11932	1152.1852	-476.35928	123.93881	1200.307	-443.46487	138.01126	1246.2568
573	2.855	-487.59439	1075.9987	252.6125	-416.97195	998.84595	253.33821	-341.51016	1147.3141	741.05743	-292.27292	1065.5635	723.87927	-415.01645	1208.6791	1113.2568	-336.33063	902.1662	1318.9877	-266.58441	537.65448	1040.396	-236.80193	551.72455	1147.6024	-478.80609	123.71044	1196.6843	-445.98978	138.20178	1243.0001
574	2.86	-490.43073	1062.6306	251.0713	-413.1192	990.81818	251.3439	-353.41898	1146.1865	738.48572	-294.68204	1070.0836	723.04913	-418.50293	1208.4307	1113.2532	-334.2431	899.49213	1314.1304	-269.05688	537.20911	1036.302	-237.13326	550.14722	1143.3392	-481.02554	123.75175	1193.1768	-448.79144	138.26289	1239.4855
575	2.865	-492.45956	1048.6344	249.30547	-409.81027	982.55542	249.64078	-363.40219	1143.9442	736.49823	-298.1373	1072.9457	721.95703	-421.74045	1207.8331	1113.13	-331.9859	896.82617	1310.0554	-271.67987	536.44678	1032.3577	-237.35304	548.5437	1139.1652	-483.82947	123.05968	1189.7354	-451.7886	138.16751	1236.2239
576	2.87	-493.7923	1034.6339	247.42097	-407.44592	974.98358	247.19196	-372.19913	1141.1991	734.41174	-302.83896	1073.0698	720.08191	-425.06015	1206.8033	1112.8831	-329.50372	894.43579	1306.5634	-273.42484	535.95898	1028.3501	-237.60507	546.86145	1135.0251	-486.20941	122.79346	1186.438	-454.54449	138.00754	1233.1396
577	2.875	-495.35123	1021.3877	245.74815	-406.19339	967.63269	246.59265	-379.6496	1137.4436	732.28632	-308.4473	1070.8029	717.6936	-428.06812	1205.3986	1112.4152	-326.84946	892.70764	1303.2449	-275.78021	534.91852	1024.9642	-237.80968	545.2887	1131.2303	-488.72382	122.21989	1183.467	-456.95941	137.7084	1230.2399
578	2.88	-496.66751	1008.3198	244.00273	-405.3678	957.32654	244.32512	-386.35437	1133.0555	730.02985	-314.19611	1067.1632	715.21307	-431.0759	1203.6182	1111.7679	-324.08569	891.60052	1300.0874	-277.56711	534.13275	1021.7265	-238.05	543.70276	1127.5396	-490.48407	121.71487	1181.0746	-459.16272	137.18248	1228.0962
579	2.885	-498.68893	996.02557	242.62053	-405.89703	949.05316	243.3187	-391.50064	1128.6614	727.3031	-320.19052	1062.4205	712.86554	-434.17319	1201.381	1110.8346	-321.34766	890.84241	1297.0306	-279.03421	532.98175	1018.7057	-238.26376	542.36719	1124.1172	-492.12137	120.90459	1179.2749	-460.8598	136.59807	1226.4662
580	2.89	-500.25391	983.48663	241.03772	-407.29227	940.19214	243.25555	-396.67532	1124.1526	724.22839	-325.25104	1057.3562	711.32794	-437.09717	1199.0642	1109.7091	-318.77377	890.50269	1294.7097	-280.54816	531.37152	1016.011	-238.51436	540.98816	1120.9432	-493.17218	119.64462	1179.639	-462.00342	135.99831	1225.542
581	2.895	-502.92963	971.27307	240.25806	-408.80682	930.09937	243.36203	-401.56134	1119.0847	721.09369	-331.64798	1051.5889	709.12042	-439.47467	1195.4604	1108.8354	-316.15942	890.37952	1292.4547	-281.12152	529.466	1013.1851	-238.89325	539.64526	1118.0687	-493.93649	118.75128	1179.1848	-462.47638	135.43877	1225.3767
582	2.9	-506.38055	959.11688	240.33267	-411.05402	919.92322	243.48938	-406.3298	1113.9845	718.28943	-336.70633	1045.8141	707.70221	-443.17313	1191.8423	1107.0688	-313.56555	890.46967	1290.4277	-282.07227	527.70068	1010.9609	-239.05423	538.33203	1115.5471	-494.15237	118.1422	1179.9355	-462.42203	134.84978	1226.0352
583	2.905	-509.33783	946.05658	240.12607	-413.58768	909.52039	243.6974	-410.78503	1108.748	715.77136	-341.09467	1040.84	706.9624	-446.04169	1188.347	1105.7638	-310.95859	890.63678	1288.788	-281.9711	525.40131	1008.2855	-239.48302	537.08643	1112.8842	-494.13571	117.42515	1181.4181	-461.80923	134.31087	1227.1963
